<?xml version="1.0" standalone="no"?>
<!DOCTYPE svg PUBLIC "-//W3C//DTD SVG 20010904//EN"
 "http://www.w3.org/TR/2001/REC-SVG-20010904/DTD/svg10.dtd">
<svg version="1.0" xmlns="http://www.w3.org/2000/svg"
 width="1024.000000pt" height="1024.000000pt" viewBox="0 0 1024.000000 1024.000000"
 preserveAspectRatio="xMidYMid meet">
<metadata>
Created by potrace 1.11, written by Peter Selinger 2001-2013
</metadata>
<g transform="translate(0.000000,1024.000000) scale(0.100000,-0.100000)"
fill="#000000" stroke="none">
<path d="M1496 10227 c-196 -21 -375 -107 -529 -254 -169 -161 -253 -302 -303
-508 -16 -65 -17 -358 -18 -4320 -2 -4580 -5 -4324 50 -4479 95 -272 352 -526
624 -614 149 -49 -10 -47 3826 -46 3925 1 3634 -3 3794 52 216 75 448 283 560
502 38 75 78 210 88 295 4 39 7 1971 6 4295 0 3343 -3 4239 -13 4290 -74 381
-401 707 -784 781 -47 10 -904 13 -3647 13 -1972 1 -3616 -2 -3654 -7z m6655
-1294 c56 -25 117 -84 144 -138 19 -39 20 -69 20 -1110 0 -1003 -1 -1073 -18
-1116 -23 -59 -91 -127 -154 -152 -47 -19 -98 -20 -3018 -20 -2394 0 -2978 2
-3010 13 -76 24 -143 87 -172 160 -17 42 -18 113 -18 1110 0 851 3 1073 13
1102 15 43 85 119 132 143 17 9 50 19 72 23 22 4 1372 7 3001 6 l2962 0 46
-21z m-5108 -3837 c58 -29 124 -102 143 -159 14 -43 16 -104 16 -457 0 -224
-3 -418 -7 -431 -21 -74 -63 -128 -136 -175 l-44 -29 -440 -3 -440 -2 -50 25
c-64 33 -109 77 -138 135 -22 44 -22 51 -23 465 0 326 3 430 13 466 23 78 109
161 187 180 17 4 222 7 456 6 394 -2 428 -3 463 -21z m2531 12 c48 -15 130
-88 159 -142 22 -40 22 -47 22 -486 0 -437 0 -446 -22 -485 -29 -54 -88 -110
-143 -134 -43 -19 -65 -20 -470 -20 l-425 -1 -50 24 c-61 29 -117 86 -144 146
-19 43 -20 66 -20 468 0 400 1 426 20 470 26 62 82 119 144 148 l50 24 420 0
c295 0 432 -4 459 -12z m2572 -7 c58 -27 119 -84 146 -139 l23 -47 1 -1700 c0
-1115 -3 -1712 -10 -1735 -20 -69 -75 -134 -146 -171 l-45 -24 -440 0 c-435 0
-440 1 -480 22 -73 41 -122 97 -145 167 -10 30 -12 400 -12 1735 l0 1696 23
49 c34 73 103 134 179 159 8 3 206 5 440 6 394 0 428 -1 466 -18z m-5160
-2545 c96 -18 189 -109 209 -205 10 -45 9 -818 0 -861 -17 -79 -103 -170 -182
-193 -38 -11 -132 -14 -468 -13 -378 1 -424 3 -455 19 -60 29 -109 76 -137
131 l-27 51 -1 423 c-2 483 -1 490 76 568 50 51 97 76 159 84 65 7 780 4 826
-4z m2580 -5 c72 -19 156 -102 182 -178 17 -51 14 -845 -4 -904 -18 -59 -81
-131 -142 -161 -47 -23 -48 -23 -467 -24 -325 -1 -430 2 -465 12 -57 17 -122
71 -158 132 l-27 47 -2 438 c-2 402 0 441 16 478 39 87 128 157 213 168 92 11
809 5 854 -8z"/>
</g>
</svg>
